<svg xmlns="http://www.w3.org/2000/svg" width="980" height="560" viewBox="0 0 980 560">
  <defs>
    <style>
      .bg{fill:#05050A}
      .box{fill:rgba(255,255,255,0.03);stroke:rgba(244,233,232,0.14);stroke-width:1.2}
      .title{fill:#ffffff;font-family:ui-sans-serif,system-ui,Inter,Segoe UI,Arial;font-size:18px;font-weight:700}
      .text{fill:rgba(255,255,255,0.78);font-family:ui-sans-serif,system-ui,Inter,Segoe UI,Arial;font-size:14px}
      .mono{fill:rgba(255,255,255,0.86);font-family:ui-monospace,SFMono-Regular,Menlo,Monaco,Consolas,monospace;font-size:13px}
      .arrow{stroke:rgba(244,233,232,0.92);stroke-width:2;marker-end:url(#m)}
    </style>
    <marker id="m" markerWidth="10" markerHeight="10" refX="9" refY="3" orient="auto">
      <path d="M0,0 L10,3 L0,6 Z" fill="rgba(244,233,232,0.92)"/>
    </marker>
  </defs>
  <rect class="bg" x="0" y="0" width="980" height="560" rx="24"/>

  <text class="title" x="40" y="54">RCEP™ Reference Implementation (Chrome) — Architecture Layers</text>
  <text class="text" x="40" y="82">UI → Capture → Compression → Snapshot → Integrity → Output</text>

  <!-- Boxes -->
  <rect class="box" x="40" y="120" width="900" height="62" rx="16"/>
  <text class="mono" x="64" y="154">1) UI Layer</text>
  <text class="text" x="240" y="154">popup.html / popup.js / popup.css (profiles + copy prompt)</text>

  <rect class="box" x="40" y="210" width="900" height="62" rx="16"/>
  <text class="mono" x="64" y="244">2) Capture Layer</text>
  <text class="text" x="240" y="244">content.js (DOM capture + API mirror + Gemini hydration)</text>

  <rect class="box" x="40" y="300" width="900" height="62" rx="16"/>
  <text class="mono" x="64" y="334">3) Compression Layer</text>
  <text class="text" x="240" y="334">lib/extraction.js (topics / decisions / insights)</text>

  <rect class="box" x="40" y="390" width="900" height="62" rx="16"/>
  <text class="mono" x="64" y="424">4) Snapshot Layer</text>
  <text class="text" x="240" y="424">lib/snapshot.js (RCEP_v1 / RCEP_v2_Ultra / UltraPlus)</text>

  <rect class="box" x="40" y="480" width="900" height="62" rx="16"/>
  <text class="mono" x="64" y="514">5) Integrity Layer</text>
  <text class="text" x="240" y="514">SHA-256 checksum + optional device-only ECDSA seal</text>

  <!-- Arrows -->
  <line class="arrow" x1="490" y1="184" x2="490" y2="206"/>
  <line class="arrow" x1="490" y1="274" x2="490" y2="296"/>
  <line class="arrow" x1="490" y1="364" x2="490" y2="386"/>
  <line class="arrow" x1="490" y1="454" x2="490" y2="476"/>
</svg>


